<svg width="20" height="26" viewBox="0 0 20 26" fill="none" xmlns="http://www.w3.org/2000/svg">
<g clip-path="url(#clip0_477_2242)">
<path d="M19.3636 8.8634C19.2211 8.9804 16.7052 10.4806 16.7052 13.8164C16.7052 17.6748 19.9066 19.0398 20.0025 19.0736C19.9877 19.1568 19.4939 20.943 18.3145 22.763C17.2629 24.3646 16.1646 25.9636 14.4939 25.9636C12.8231 25.9636 12.3931 24.9366 10.4644 24.9366C8.58477 24.9366 7.91646 25.9974 6.38821 25.9974C4.85995 25.9974 3.79361 24.5154 2.56757 22.6954C1.14742 20.5582 0 17.238 0 14.0868C0 9.0324 3.10565 6.3518 6.16216 6.3518C7.78624 6.3518 9.14005 7.4802 10.1597 7.4802C11.1302 7.4802 12.6437 6.2842 14.4914 6.2842C15.1916 6.2842 17.7076 6.3518 19.3636 8.8634ZM13.6143 4.1444C14.3784 3.185 14.9189 1.8538 14.9189 0.5226C14.9189 0.338 14.9042 0.1508 14.8722 0C13.629 0.0494 12.1499 0.8762 11.258 1.9708C10.5577 2.8132 9.90418 4.1444 9.90418 5.4938C9.90418 5.6966 9.93612 5.8994 9.95086 5.9644C10.0295 5.98 10.1572 5.9982 10.285 5.9982C11.4005 5.9982 12.8034 5.2078 13.6143 4.1444Z" fill="black"/>
</g>
<defs>
<clipPath id="clip0_477_2242">
<rect width="20" height="26" fill="white"/>
</clipPath>
</defs>
</svg>
