<svg preserveAspectRatio="none" width="100%" height="100%" overflow="visible" style="display: block;" viewBox="0 0 24 24" fill="none" xmlns="http://www.w3.org/2000/svg">
<path id="Increase offer_Pictogram" d="M15.2441 0.0117188C20.1214 0.258884 23.9998 4.29187 24 9.23047V14.7695L23.9883 15.2441C23.7491 19.9642 19.9642 23.7491 15.2441 23.9883L14.7695 24H9.23047C4.29187 23.9998 0.258884 20.1214 0.0117188 15.2441L0 14.7695V9.23047C0.000162864 4.13269 4.13269 0.000162861 9.23047 0H14.7695L15.2441 0.0117188ZM9.23047 1.8457C5.1523 1.84587 1.84587 5.1523 1.8457 9.23047V14.7695C1.84587 18.8477 5.1523 22.1541 9.23047 22.1543H14.7695C18.8477 22.1541 22.1541 18.8477 22.1543 14.7695V9.23047C22.1541 5.1523 18.8477 1.84587 14.7695 1.8457H9.23047ZM11.7783 8.66016C11.9166 8.58435 12.0844 8.58423 12.2227 8.66016L15.915 10.6885C16.0624 10.7696 16.1543 10.9246 16.1543 11.0928V14.2734C16.1543 14.6115 15.8022 14.835 15.4961 14.6914L12.1963 13.1426C12.0721 13.0844 11.9279 13.0843 11.8037 13.1426L8.50391 14.6914C8.19784 14.835 7.84668 14.6115 7.84668 14.2734V11.0928C7.84668 10.9243 7.93831 10.7695 8.08594 10.6885L11.7783 8.66016Z" fill="var(--fill-0, #00FF00)"/>
</svg>
