<svg width="16" height="16" viewBox="0 0 16 16" fill="none" xmlns="http://www.w3.org/2000/svg">
<path d="M7.99961 9.6001L7.50748 10.1661C7.78968 10.4114 8.20954 10.4114 8.49174 10.1661L7.99961 9.6001ZM4.60449 10.2498C5.00295 10.1366 5.23424 9.7219 5.12108 9.32344C5.00793 8.92498 4.59318 8.6937 4.19472 8.80685L4.39961 9.52833L4.60449 10.2498ZM11.8045 8.80685C11.406 8.6937 10.9913 8.92498 10.8781 9.32344C10.765 9.7219 10.9963 10.1366 11.3947 10.2498L11.5996 9.52833L11.8045 8.80685ZM11.1996 4.73053H10.4496C10.4496 5.07374 10.3131 5.51023 10.04 6.01487C9.77234 6.50948 9.40598 7.01041 9.0243 7.46676C8.64471 7.92062 8.26296 8.31502 7.97514 8.59658C7.83169 8.73691 7.7127 8.84811 7.63047 8.92345C7.58938 8.96109 7.55755 8.98971 7.53652 9.00845C7.52601 9.01782 7.5182 9.02472 7.51329 9.02904C7.51084 9.0312 7.50911 9.03271 7.50813 9.03357C7.50764 9.034 7.50734 9.03426 7.50723 9.03436C7.50718 9.0344 7.50717 9.03441 7.50721 9.03437C7.50723 9.03436 7.5073 9.0343 7.50731 9.03429C7.50739 9.03422 7.50748 9.03414 7.99961 9.6001C8.49174 10.1661 8.49186 10.166 8.49199 10.1658C8.49204 10.1658 8.49218 10.1657 8.4923 10.1656C8.49254 10.1654 8.49282 10.1651 8.49315 10.1648C8.49382 10.1642 8.49468 10.1635 8.49573 10.1626C8.49782 10.1607 8.50069 10.1582 8.50429 10.1551C8.51149 10.1487 8.52165 10.1397 8.53458 10.1282C8.56042 10.1052 8.59734 10.072 8.64375 10.0295C8.73652 9.94447 8.86753 9.82198 9.02408 9.66883C9.33626 9.36344 9.75451 8.93175 10.1749 8.42909C10.5932 7.92892 11.0269 7.34289 11.3592 6.7288C11.6861 6.12475 11.9496 5.4308 11.9496 4.73053H11.1996ZM7.99961 9.6001C8.49174 9.03414 8.49183 9.03422 8.49191 9.03429C8.49192 9.0343 8.49199 9.03436 8.49201 9.03437C8.49205 9.03441 8.49204 9.0344 8.49199 9.03436C8.49188 9.03426 8.49158 9.034 8.49109 9.03357C8.49011 9.03271 8.48838 9.0312 8.48593 9.02904C8.48102 9.02472 8.47321 9.01782 8.4627 9.00845C8.44167 8.98971 8.40984 8.96109 8.36875 8.92345C8.28652 8.84811 8.16753 8.73691 8.02408 8.59658C7.73626 8.31502 7.35451 7.92062 6.97492 7.46676C6.59324 7.01041 6.22688 6.50948 5.95921 6.01487C5.68611 5.51023 5.54961 5.07374 5.54961 4.73053H4.79961H4.04961C4.04961 5.4308 4.31311 6.12475 4.64001 6.7288C4.97234 7.34289 5.40598 7.92892 5.8243 8.42909C6.24471 8.93175 6.66296 9.36344 6.97514 9.66883C7.13169 9.82198 7.2627 9.94447 7.35547 10.0295C7.40188 10.072 7.4388 10.1052 7.46464 10.1282C7.47757 10.1397 7.48773 10.1487 7.49493 10.1551C7.49853 10.1582 7.5014 10.1607 7.50349 10.1626C7.50454 10.1635 7.5054 10.1642 7.50607 10.1648C7.5064 10.1651 7.50668 10.1654 7.50692 10.1656C7.50704 10.1657 7.50717 10.1658 7.50723 10.1658C7.50736 10.166 7.50748 10.1661 7.99961 9.6001ZM4.79961 4.73053H5.54961C5.54961 3.43131 6.63089 2.3501 7.99961 2.3501V1.6001V0.850098C5.83371 0.850098 4.04961 2.57197 4.04961 4.73053H4.79961ZM7.99961 1.6001V2.3501C9.36833 2.3501 10.4496 3.43131 10.4496 4.73053H11.1996H11.9496C11.9496 2.57197 10.1655 0.850098 7.99961 0.850098V1.6001ZM14.3996 11.7334H13.6496C13.6496 11.8404 13.6008 12.0101 13.3703 12.2371C13.1372 12.4667 12.7615 12.7081 12.2366 12.9267C11.1902 13.3627 9.69265 13.6501 7.99961 13.6501V14.4001V15.1501C9.84119 15.1501 11.5436 14.8405 12.8136 14.3114C13.4469 14.0475 14.0084 13.7142 14.423 13.3057C14.8403 12.8947 15.1496 12.3629 15.1496 11.7334H14.3996ZM7.99961 14.4001V13.6501C6.30657 13.6501 4.80899 13.3627 3.76259 12.9267C3.23775 12.7081 2.86198 12.4667 2.62889 12.2371C2.39844 12.0101 2.34961 11.8404 2.34961 11.7334H1.59961H0.849609C0.849609 12.3629 1.15895 12.8947 1.57622 13.3057C1.99084 13.7142 2.55233 14.0475 3.18566 14.3114C4.4556 14.8405 6.15803 15.1501 7.99961 15.1501V14.4001ZM1.59961 11.7334H2.34961C2.34961 11.6025 2.42821 11.366 2.82365 11.0612C3.21157 10.7622 3.8142 10.4742 4.60449 10.2498L4.39961 9.52833L4.19472 8.80685C3.2948 9.06242 2.49744 9.41874 1.90791 9.87315C1.3259 10.3218 0.849609 10.9478 0.849609 11.7334H1.59961ZM11.5996 9.52833L11.3947 10.2498C12.185 10.4742 12.7877 10.7622 13.1756 11.0612C13.571 11.366 13.6496 11.6025 13.6496 11.7334H14.3996H15.1496C15.1496 10.9478 14.6733 10.3218 14.0913 9.87315C13.5018 9.41874 12.7044 9.06242 11.8045 8.80685L11.5996 9.52833Z" fill="#506858"/>
</svg>
