<svg width="32" height="22" viewBox="0 0 32 22" fill="none" xmlns="http://www.w3.org/2000/svg">
<g clip-path="url(#clip0_249_4488)">
<path d="M3.45111 14.5085C3.45111 15.7732 3.71889 16.7442 4.06889 17.3316C4.52778 18.101 5.21222 18.427 5.91 18.427C6.81 18.427 7.63333 18.1955 9.22 15.9206C10.4911 14.0973 11.9889 11.5379 12.9967 9.9334L14.7033 7.21508C15.8889 5.32723 17.2611 3.22859 18.8344 1.80607C20.1189 0.645026 21.5044 0 22.8989 0C25.24 0 27.47 1.40639 29.1767 4.04408C31.0444 6.93288 31.9511 10.5715 31.9511 14.3265C31.9511 16.5587 31.5267 18.199 30.8044 19.4948C30.1067 20.748 28.7467 22 26.4589 22V18.427C28.4178 18.427 28.9067 16.561 28.9067 14.4255C28.9067 11.3824 28.2222 8.00524 26.7144 5.59215C25.6444 3.88052 24.2578 2.83466 22.7322 2.83466C21.0822 2.83466 19.7544 4.12471 18.2622 6.42492C17.4689 7.64702 16.6544 9.13634 15.74 10.8169L14.7333 12.6656C12.7111 16.3825 12.1989 17.2291 11.1878 18.6263C9.41556 21.0728 7.90222 22 5.91 22C3.54667 22 2.05222 20.9392 1.12667 19.3404C0.371111 18.0377 0 16.3284 0 14.3806L3.45111 14.5085Z" fill="#0081FB"/>
<path d="M2.7207 4.29634C4.30293 1.76806 6.58626 0 9.20515 0C10.7218 0 12.2296 0.46534 13.804 1.79801C15.5263 3.25508 17.3618 5.65435 19.6518 9.60859L20.4729 11.0276C22.4551 14.4509 23.5829 16.212 24.2429 17.0425C25.0918 18.1091 25.6863 18.427 26.4585 18.427C28.4174 18.427 28.9063 16.561 28.9063 14.4255L31.9507 14.3265C31.9507 16.5587 31.5263 18.199 30.804 19.4948C30.1063 20.748 28.7463 22 26.4585 22C25.0363 22 23.7763 21.6798 22.3829 20.3172C21.3118 19.2713 20.0596 17.4134 19.0963 15.7432L16.2307 10.7812C14.7929 8.29089 13.474 6.43414 12.7107 5.5933C11.8896 4.68911 10.834 3.59717 9.14959 3.59717C7.78626 3.59717 6.62848 4.5889 5.65959 6.10586L2.7207 4.29634Z" fill="url(#paint0_linear_249_4488)"/>
<path d="M9.15 3.59717C7.78667 3.59717 6.62889 4.5889 5.66 6.10586C4.29 8.24942 3.45111 11.4423 3.45111 14.5085C3.45111 15.7732 3.71889 16.7442 4.06889 17.3316L1.12667 19.3404C0.371111 18.0377 0 16.3284 0 14.3806C0 10.8387 0.937778 7.14712 2.72111 4.29633C4.30333 1.76806 6.58667 0 9.20555 0L9.15 3.59717Z" fill="url(#paint1_linear_249_4488)"/>
</g>
<defs>
<linearGradient id="paint0_linear_249_4488" x1="6.77737" y1="13.4764" x2="28.7813" y2="14.5485" gradientUnits="userSpaceOnUse">
<stop stop-color="#0064E1"/>
<stop offset="0.4" stop-color="#0064E1"/>
<stop offset="0.83" stop-color="#0073EE"/>
<stop offset="1" stop-color="#0082FB"/>
</linearGradient>
<linearGradient id="paint1_linear_249_4488" x1="5" y1="16.0105" x2="5" y2="7.60209" gradientUnits="userSpaceOnUse">
<stop stop-color="#0082FB"/>
<stop offset="1" stop-color="#0064E0"/>
</linearGradient>
<clipPath id="clip0_249_4488">
<rect width="32" height="22" fill="white"/>
</clipPath>
</defs>
</svg>
