<svg width="38" height="38" viewBox="0 0 38 38" fill="none" xmlns="http://www.w3.org/2000/svg">
<path d="M23.7617 0.00488281C31.6592 0.204903 37.9999 6.66953 38 14.6152V23.3848L37.9951 23.7617C37.7983 31.534 31.534 37.7983 23.7617 37.9951L23.3848 38H14.6152C6.66953 37.9999 0.204903 31.6592 0.00488281 23.7617L0 23.3848V14.6152C8.19535e-05 6.5435 6.5435 8.19482e-05 14.6152 0H23.3848L23.7617 0.00488281ZM14.6152 2.92285C8.15787 2.92293 2.92293 8.15787 2.92285 14.6152V23.3848C2.92293 29.8421 8.15787 35.0771 14.6152 35.0771H23.3848C29.8421 35.0771 35.0771 29.8421 35.0771 23.3848V14.6152C35.0771 8.15787 29.8421 2.92293 23.3848 2.92285H14.6152ZM18.6484 13.7119C18.8674 13.5917 19.1326 13.5918 19.3516 13.7119L25.1982 16.9229C25.4319 17.0512 25.5771 17.2969 25.5771 17.5635V22.5996C25.5771 23.1348 25.0207 23.4888 24.5361 23.2617L19.3105 20.8096C19.1139 20.7174 18.886 20.7173 18.6895 20.8096L13.4648 23.2617C12.9802 23.4891 12.4229 23.1349 12.4229 22.5996V17.5635C12.4229 17.2968 12.569 17.0512 12.8027 16.9229L18.6484 13.7119Z" fill="#00FF00"/>
</svg>
