<svg width="117" height="23" viewBox="0 0 117 23" fill="none" xmlns="http://www.w3.org/2000/svg">
<g clip-path="url(#clip0_237_1566)">
<path fill-rule="evenodd" clip-rule="evenodd" d="M102.897 8.25084H106.945C106.975 8.25084 107 8.2241 107 8.19112V4.20115C106.999 3.22595 106.676 2.43259 106.023 1.87813C105.422 1.36824 104.519 1.0607 103.313 1.00009C103.283 0.998304 103.258 1.02415 103.258 1.05625V2.56095C103.258 2.59037 103.28 2.61444 103.308 2.61711C104.366 2.6911 105.171 3.03251 105.171 4.22165L102.897 4.22255C102.867 4.22255 102.842 4.24929 102.842 4.28227V8.19201C102.842 8.2241 102.867 8.25084 102.897 8.25084ZM15.3536 11.4804H10.4459C10.3692 11.4804 10.3202 11.5491 10.3202 11.6168V14.2518C10.3202 14.3347 10.3826 14.3882 10.4459 14.3882H12.1891V16.5098C12.1891 18.0876 11.8039 18.9344 10.4459 18.9344C9.31168 18.9344 8.5065 18.2472 8.5065 16.1095V9.94899C8.5065 7.9023 9.1164 6.94314 10.4673 6.94314C11.6853 6.94314 12.1819 7.69103 12.1819 9.08788V9.88124C12.1819 9.96414 12.2453 10.0167 12.3086 10.0167H15.326C15.4026 10.0167 15.4517 9.94899 15.4517 9.88124V8.9506C15.4793 5.63633 13.7156 3.88381 10.5234 3.88381C7.33128 3.88381 5.25192 5.77984 5.25192 9.76714V16.3591C5.25192 20.2858 7.67368 21.9929 10.3621 21.9929C13.3723 21.9929 15.4722 20.8073 15.4722 16.4198V11.6088C15.4735 11.5753 15.4619 11.5427 15.4399 11.5175C15.4178 11.4923 15.3869 11.4765 15.3536 11.4733V11.4804ZM24.7482 18.5012H20.0295V4.35002C20.0295 4.26623 19.9671 4.21363 19.9038 4.21363H16.9345C16.8579 4.21363 16.8097 4.28138 16.8097 4.35002V21.5445C16.8097 21.6274 16.8721 21.68 16.9345 21.68H24.7411C24.8178 21.68 24.8668 21.6122 24.8668 21.5445V18.6447C24.8668 18.5618 24.8044 18.5083 24.7411 18.5083H24.7482V18.5012ZM69.0908 9.81171C69.0908 5.84759 71.1274 3.91412 74.2428 3.91412C77.3164 3.91412 79.3815 5.85472 79.3672 9.81171V16.0944C79.3672 20.112 77.4564 21.9617 74.2428 21.9617C71.0293 21.9617 69.0908 20.1494 69.0908 16.0944V9.81171ZM74.2428 18.9487C75.5447 18.9487 76.0841 17.9976 76.0841 15.974V9.95522C76.0841 7.93172 75.5589 6.95027 74.2428 6.95027C72.9267 6.95027 72.4016 7.96916 72.4016 9.95522V15.974C72.4016 18.0056 72.941 18.9487 74.2428 18.9487ZM85.7739 3.91412C82.6584 3.91412 80.6209 5.84759 80.6209 9.81171V16.0944C80.6209 20.1503 82.5603 21.9617 85.7739 21.9617C88.9874 21.9617 90.8983 20.112 90.8983 16.0944V9.81171C90.9126 5.85472 88.8475 3.91412 85.7739 3.91412ZM87.6152 15.9749C87.6152 17.9984 87.0757 18.9496 85.7739 18.9496C84.472 18.9496 83.9326 18.0056 83.9326 15.9749V9.95612C83.9326 7.97005 84.4578 6.95116 85.7739 6.95116C87.09 6.95116 87.6152 7.93172 87.6152 9.95612V15.9749ZM58.2125 4.20828H62.6645V4.22344C65.6748 4.22344 67.9432 5.87701 67.9432 9.95522V15.9437C67.9432 19.9836 65.731 21.6755 62.6289 21.6755H58.2125C58.1492 21.6755 58.0858 21.622 58.0858 21.5391V4.35982C58.0858 4.28405 58.1349 4.20828 58.2125 4.20828ZM62.4898 18.4959C63.8335 18.4959 64.6744 17.5741 64.6744 15.4223L64.6806 15.4294V10.1816C64.6806 8.0066 63.7988 7.13034 62.4613 7.13034H61.2361V18.4959H62.4898ZM41.9779 3.88381H41.9288C38.8624 3.88381 37.2458 5.77182 37.2458 8.60384C37.2458 11.5517 39.1504 12.9236 40.7215 14.0548L41.0256 14.275L41.3903 14.5398L41.3912 14.5407L41.3921 14.5415C42.5013 15.3438 43.3573 15.9625 43.3573 17.3254C43.3573 18.4664 42.6573 18.9193 41.845 18.9416C40.9489 18.9638 40.298 18.224 40.298 17.2951V15.7922C40.2985 15.7697 40.2945 15.7474 40.2862 15.7265C40.278 15.7056 40.2656 15.6865 40.25 15.6704C40.2343 15.6543 40.2155 15.6415 40.1949 15.6327C40.1742 15.624 40.1519 15.6194 40.1295 15.6193H37.2592C37.1611 15.6193 37.0915 15.6941 37.0915 15.7931V17.3174C37.0915 20.3304 38.7857 22 41.7683 22C44.7501 22 46.5566 20.2929 46.5566 17.2951C46.5566 14.1734 44.7073 12.8247 43.096 11.648L43.0425 11.6088C42.8665 11.4801 42.6893 11.3529 42.5111 11.2273C41.4072 10.4428 40.3818 9.71454 40.3818 8.58067C40.3818 7.4557 41.0951 6.92709 41.9217 6.92709C42.8116 6.92709 43.4411 7.61437 43.4411 8.52094V9.84915C43.4411 9.9472 43.5187 10.023 43.6096 10.023H46.4799C46.578 10.023 46.6475 9.94809 46.6475 9.85004V8.55838C46.6547 5.59889 44.8696 3.89896 41.9779 3.88381ZM52.2882 3.88381H52.3373C55.2289 3.89896 57.0069 5.598 57.0069 8.55838V9.85004C57.0069 9.94809 56.9374 10.023 56.8393 10.023H53.9681C53.9457 10.0227 53.9236 10.0181 53.903 10.0092C53.8824 10.0004 53.8638 9.98756 53.8482 9.97148C53.8326 9.9554 53.8204 9.93638 53.8122 9.91554C53.804 9.89469 53.8 9.87243 53.8005 9.85004V8.52094C53.8005 7.61437 53.171 6.92709 52.2811 6.92709C51.4554 6.92709 50.7412 7.4557 50.7412 8.58067C50.7412 9.71365 51.7666 10.4428 52.8705 11.2273C53.0476 11.3521 53.2248 11.4792 53.4019 11.6088L53.4554 11.648C55.0676 12.8247 56.916 14.1734 56.916 17.2951C56.916 20.2929 55.1095 22 52.1277 22C49.146 22 47.4509 20.3313 47.4509 17.3183V15.7922C47.4509 15.6941 47.5214 15.6193 47.6186 15.6193H50.4897C50.5807 15.6193 50.6574 15.6941 50.6574 15.7931V17.2942C50.6574 18.2231 51.3083 18.963 52.2044 18.9407C53.0158 18.9184 53.7167 18.4647 53.7167 17.3245C53.7167 15.9607 52.8607 15.3429 51.7523 14.5407C51.6323 14.4545 51.5101 14.3653 51.3859 14.2732L51.0845 14.0557L51.0818 14.0539C49.5098 12.9227 47.6043 11.5509 47.6043 8.60295C47.6043 5.77093 49.2227 3.88292 52.2882 3.88292M101.749 9.58618V8.14387C101.749 5.94654 100.055 4.2172 98.1083 4.2172H92.3258C92.2563 4.2172 92.2001 4.27781 92.2001 4.35269V21.5329C92.2001 21.6078 92.2563 21.6684 92.3258 21.6684H95.1542C95.2309 21.6684 95.2799 21.6006 95.2799 21.5329V14.3811H96.6665C97.9549 14.3811 98.3606 14.8945 98.3606 16.2014V21.5177C98.3606 21.6006 98.424 21.6532 98.4864 21.6532H101.406C101.441 21.6523 101.475 21.6377 101.5 21.6124C101.524 21.5871 101.538 21.5532 101.539 21.5177V16.2994C101.539 14.5166 101.084 13.3765 99.9219 12.9085C101.091 12.395 101.749 11.3681 101.749 9.58618ZM98.5844 10.1906C98.5844 10.9073 98.0521 11.4813 97.3941 11.4813H95.2452V7.11696H97.3941C98.0521 7.11696 98.5844 7.69103 98.5844 8.4006V10.1906ZM29.837 4.2172H32.8481C32.9043 4.2172 32.9596 4.26177 32.9738 4.33041L36.8802 21.4874C36.9159 21.5855 36.8446 21.6764 36.7545 21.6764H33.87C33.8209 21.6764 33.7576 21.631 33.7442 21.5623L33.1281 18.4896H29.5293L28.9141 21.5623C28.9093 21.5929 28.8941 21.6209 28.8711 21.6416C28.848 21.6622 28.8184 21.6742 28.7875 21.6755H25.9029C25.8191 21.6755 25.7558 21.5855 25.7772 21.4874L29.7103 4.3313C29.7133 4.29994 29.7279 4.27084 29.7514 4.24984C29.7749 4.22885 29.8055 4.2175 29.837 4.21809M31.3011 9.66997L30.1107 15.6059H32.5182L31.3287 9.66997L31.3144 9.75287L31.3011 9.66997ZM4.10167 4.21452H0.0552833C0.0249667 4.21452 0 4.24127 0 4.27336V8.1822C0 8.21519 0.0249667 8.24193 0.0552833 8.24193H2.32903C2.32903 9.43197 1.52386 9.77338 0.46545 9.84736C0.451413 9.84828 0.438303 9.85469 0.428958 9.8652C0.419612 9.87571 0.414783 9.88948 0.415517 9.90352V11.4091C0.415517 11.4403 0.441375 11.4662 0.4708 11.4644C1.67722 11.4038 2.57959 11.0962 3.18057 10.5863C3.83417 10.0319 4.15695 9.23853 4.15784 8.26332V4.27336C4.15784 4.24037 4.13287 4.21363 4.10256 4.21363" fill="white"/>
</g>
<defs>
<clipPath id="clip0_237_1566">
<rect width="117" height="23" fill="white"/>
</clipPath>
</defs>
</svg>
