<svg width="86" height="23" viewBox="0 0 86 23" fill="none" xmlns="http://www.w3.org/2000/svg">
<g clip-path="url(#clip0_237_1583)">
<path fill-rule="evenodd" clip-rule="evenodd" d="M85.5359 3.97193C85.2325 3.62702 84.8241 3.4575 84.2814 3.4575C83.7388 3.4575 83.3128 3.63872 83.0153 4.01869C82.7235 4.38698 82.5718 4.93648 82.5718 5.64383V10.8349C81.895 10.1042 81.1948 9.58389 80.4771 9.23314C80.0336 9.01685 79.5085 8.85901 78.9191 8.78302C78.5749 8.7421 78.2306 8.71871 77.8455 8.71871C76.06 8.71871 74.613 9.33252 73.5043 10.5718C72.4074 11.7995 71.8589 13.5123 71.8589 15.7044C71.8589 16.7392 71.9989 17.7096 72.279 18.5981C72.5591 19.4808 72.9559 20.2583 73.4927 20.9247C74.0295 21.5795 74.6772 22.0881 75.4065 22.4563C76.1359 22.8129 76.9353 22.9942 77.8047 22.9942C78.2014 22.9942 78.5807 22.9591 78.925 22.8948C79.1642 22.8597 79.3743 22.7954 79.6018 22.7311C80.1503 22.5499 80.6638 22.2868 81.1306 21.9536C81.6149 21.6087 82.0875 21.1703 82.5718 20.6266V20.9715C82.5718 21.6204 82.7352 22.1114 83.0561 22.468C83.3887 22.8129 83.7971 22.9942 84.2814 22.9942C84.7891 22.9942 85.1975 22.8246 85.5068 22.4973C85.816 22.1524 85.9911 21.6555 85.9911 20.9774V5.45676C85.9735 4.81372 85.8277 4.30514 85.5359 3.97193ZM81.9008 18.3C81.5915 18.9547 81.1597 19.4516 80.6521 19.7731C80.127 20.0946 79.5551 20.2466 78.9191 20.2466H78.9075C78.2715 20.2466 77.7055 20.0771 77.1745 19.7497C76.6494 19.4048 76.2292 18.9079 75.9258 18.2415C75.6224 17.5751 75.4765 16.7567 75.4765 15.8097C75.4765 14.9036 75.6166 14.1085 75.9083 13.4421C76.1884 12.764 76.5968 12.2379 77.1103 11.8696C77.6355 11.4955 78.2189 11.3201 78.8841 11.3201H78.9191C79.5435 11.3201 80.1095 11.5013 80.6404 11.8579C81.1656 12.2145 81.5857 12.7289 81.895 13.3954C82.2042 14.0618 82.3559 14.8802 82.3559 15.8097C82.3676 16.8035 82.2159 17.6336 81.9008 18.3ZM70.5577 18.452C70.3301 18.2591 70.0326 18.1597 69.6533 18.1597C69.309 18.1597 69.064 18.2474 68.8714 18.3877C68.4221 18.7969 68.0545 19.1301 67.7745 19.3698C67.4944 19.5977 67.1851 19.8199 66.8409 20.0362C66.52 20.2408 66.164 20.4045 65.8081 20.4863C65.4405 20.5857 65.0554 20.6383 64.6236 20.6383C64.5244 20.6383 64.4427 20.6383 64.3552 20.6266C63.8184 20.5915 63.3107 20.4454 62.8615 20.1765C62.3246 19.8667 61.9045 19.4107 61.5719 18.8203C61.2627 18.2064 61.0876 17.4933 61.076 16.6982H68.1362C69.0815 16.6982 69.8108 16.5579 70.3301 16.3124C70.8553 16.0435 71.112 15.4706 71.112 14.5879C71.112 13.6292 70.8553 12.6939 70.3476 11.7761C69.84 10.8583 69.099 10.11 68.0779 9.53713C67.0684 8.95839 65.8664 8.67779 64.4544 8.67779H64.3494C63.3049 8.68949 62.348 8.85901 61.5019 9.18638C60.6092 9.53128 59.8681 10.0165 59.2438 10.642C58.6545 11.2792 58.1818 12.0391 57.8668 12.9335C57.5517 13.8279 57.3825 14.7983 57.3825 15.8272C57.3825 18.0369 58.0301 19.7673 59.308 21.0592C60.5216 22.2751 62.1963 22.924 64.3377 22.9883C64.4544 23 64.5828 23 64.7111 23C65.7089 23 66.6133 22.8714 67.3952 22.6142C68.1771 22.357 68.8247 22.0354 69.3382 21.6438C69.8517 21.2463 70.2426 20.8371 70.4877 20.4162C70.7444 19.9953 70.8728 19.6211 70.8728 19.3055C70.9078 18.9255 70.7911 18.639 70.5577 18.452ZM62.1496 12.0157C62.7214 11.4136 63.4625 11.1096 64.361 11.1096H64.3727C65.3063 11.1096 66.0707 11.4019 66.6425 11.9924C67.2143 12.5828 67.5586 13.4889 67.6286 14.6931H61.0935C61.216 13.5123 61.5603 12.6179 62.1496 12.0157ZM55.2235 18.1538C54.8676 18.1538 54.6225 18.2415 54.43 18.3818C53.9865 18.791 53.6131 19.1242 53.333 19.3639C53.053 19.5919 52.7554 19.814 52.4111 20.0303C52.0785 20.2349 51.7343 20.3986 51.3667 20.4805C51.0107 20.5798 50.614 20.6325 50.1822 20.6325C50.083 20.6325 50.0013 20.6325 49.9138 20.6208C49.377 20.5857 48.8693 20.4395 48.42 20.1706C47.8949 19.8608 47.4631 19.4048 47.1539 18.8144C46.8213 18.2006 46.6579 17.4874 46.6462 16.6924H53.6948C54.6284 16.6924 55.3577 16.5521 55.8887 16.3066C56.4022 16.0377 56.6648 15.4648 56.6648 14.5821C56.6648 13.6233 56.4197 12.688 55.9121 11.7702C55.4044 10.8524 54.6576 10.1042 53.6423 9.53128C52.6328 8.95255 51.4192 8.67195 50.0188 8.67195H49.9021C48.8577 8.68364 47.9124 8.85317 47.0547 9.18053C46.1619 9.52543 45.4209 10.0106 44.8082 10.6361C44.2072 11.2733 43.7346 12.0333 43.4195 12.9277C43.0986 13.8221 42.9352 14.7925 42.9352 15.8214C42.9352 18.0311 43.5887 19.7614 44.8724 21.0533C46.0861 22.2693 47.7549 22.9182 49.8904 22.9825C50.0188 22.9942 50.1355 22.9942 50.2639 22.9942C51.2733 22.9942 52.166 22.8655 52.9479 22.6083C53.7298 22.3511 54.3775 22.0296 54.8851 21.6379C55.4103 21.2404 55.7895 20.8312 56.0463 20.4103C56.303 19.9894 56.4314 19.6153 56.4314 19.2996C56.4314 18.943 56.3147 18.6624 56.0871 18.4695C55.8887 18.2474 55.5736 18.1538 55.2235 18.1538ZM47.6965 12.0157C48.2683 11.4136 49.0094 11.1096 49.9079 11.1096H49.9196C50.8532 11.1096 51.6176 11.4019 52.1894 11.9924C52.767 12.5828 53.1055 13.4889 53.1872 14.6931H46.6462C46.7746 13.5123 47.1305 12.6179 47.6965 12.0157ZM7.50561 20.6383V12.2496C7.75068 12.273 7.98991 12.2847 8.22331 12.2847C9.39612 12.2847 10.4931 11.9748 11.4267 11.437V20.6441C11.4267 21.4275 11.2458 22.0121 10.8782 22.3979C10.5106 22.7837 10.038 22.9766 9.44864 22.9766C8.87682 22.9766 8.41586 22.7837 8.05409 22.3862C7.704 21.9828 7.50561 21.4158 7.50561 20.6383ZM41.4473 3.97193C41.1439 3.62702 40.7296 3.4575 40.1986 3.4575C39.6502 3.4575 39.23 3.63872 38.9325 4.01869C38.629 4.38698 38.489 4.93648 38.489 5.64383V10.8349C37.8122 10.1042 37.112 9.58389 36.3943 9.23314C35.945 9.01685 35.4257 8.85901 34.848 8.78302C34.5154 8.7421 34.1595 8.71871 33.7744 8.71871C31.9889 8.71871 30.5302 9.33252 29.4332 10.5718C28.3363 11.7995 27.7878 13.5123 27.7878 15.7044C27.7878 16.7392 27.9278 17.7096 28.1962 18.5981C28.4763 19.4808 28.8847 20.2583 29.4216 20.9247C29.9584 21.5795 30.606 22.0881 31.3354 22.4563C32.0764 22.8129 32.8642 22.9942 33.7336 22.9942C34.1187 22.9942 34.4979 22.9591 34.8539 22.8948C35.0931 22.8597 35.3031 22.7954 35.5307 22.7311C36.0792 22.5499 36.5927 22.2868 37.0595 21.9536C37.5438 21.6087 38.0047 21.1703 38.5007 20.6266V20.9715C38.5007 21.6204 38.6641 22.1114 38.985 22.468C39.2942 22.8129 39.726 22.9942 40.2103 22.9942C40.6946 22.9942 41.1147 22.8246 41.424 22.4973C41.7332 22.1524 41.8849 21.6555 41.8849 20.9774V5.45676C41.8733 4.81372 41.7332 4.30514 41.4473 3.97193ZM37.8238 18.3C37.5146 18.9547 37.0828 19.4516 36.5693 19.7731C36.0559 20.0946 35.4724 20.2466 34.848 20.2466H34.8364C34.2003 20.2466 33.6344 20.0771 33.1034 19.7497C32.5666 19.4048 32.1581 18.9079 31.8547 18.2415C31.5513 17.5751 31.4054 16.7567 31.4054 15.8097C31.4054 14.9036 31.5455 14.1085 31.8255 13.4421C32.1173 12.764 32.5141 12.2379 33.0392 11.8696C33.5527 11.4955 34.1478 11.3201 34.8013 11.3201H34.8422C35.4665 11.3201 36.0325 11.5013 36.5518 11.8579C37.0886 12.2145 37.5087 12.7289 37.818 13.3954C38.1214 14.0618 38.279 14.8802 38.279 15.8097C38.2848 16.8035 38.1214 17.6336 37.8238 18.3ZM17.1916 10.6244V11.057C17.8392 10.2386 18.5219 9.6482 19.263 9.25653C20.0273 8.8824 20.8851 8.68364 21.8653 8.68364C22.8106 8.68364 23.6625 8.88824 24.4094 9.28576C25.1621 9.68327 25.7105 10.2562 26.0723 10.9986C26.3174 11.4312 26.4691 11.9047 26.5333 12.3957C26.5975 12.8809 26.6383 13.524 26.6383 14.3015V20.8254C26.6383 21.5386 26.4691 22.0647 26.1307 22.4213C25.8097 22.7896 25.3663 22.9708 24.8411 22.9708C24.3043 22.9708 23.8725 22.7896 23.5283 22.4096C23.184 22.0413 23.0207 21.5152 23.0207 20.8254V14.9796C23.0207 13.8163 22.8573 12.9335 22.5247 12.3197C22.2038 11.7059 21.5386 11.3961 20.5466 11.3961C19.899 11.3961 19.3213 11.589 18.7962 11.9573C18.271 12.3314 17.8743 12.84 17.6234 13.5064C17.4541 14.0325 17.3666 15.0029 17.3666 16.4469V20.8312C17.3666 21.5502 17.1974 22.0705 16.8531 22.433C16.5089 22.7896 16.0771 22.9708 15.5403 22.9708C15.0151 22.9708 14.595 22.7896 14.2508 22.4096C13.9065 22.0413 13.7431 21.5152 13.7431 20.8254V10.6829C13.7431 10.0165 13.8948 9.5079 14.1924 9.18638C14.4842 8.85317 14.8926 8.67779 15.4178 8.67779C15.727 8.67779 16.0071 8.7421 16.2638 8.89409C16.5206 9.04608 16.7248 9.26237 16.8882 9.54882C17.1274 9.86449 17.1916 10.2152 17.1916 10.6244ZM7.52895 0.540443C9.95628 -0.313043 12.7337 -0.266277 14.8051 1.48746C15.1902 1.84406 15.6336 2.28249 15.8029 2.81446C16.0188 3.46919 15.0735 2.75015 14.9335 2.65078C14.2566 2.21819 13.5798 1.85575 12.8154 1.60438C8.73094 0.376761 4.8624 2.59232 2.45841 6.05303C1.47231 7.57294 0.812964 9.17469 0.276152 10.9401C0.223638 11.133 0.171123 11.3844 0.0602601 11.5539C-0.0447684 11.7468 0.0194157 11.0395 0.0194157 11.0044C0.106939 10.2737 0.258647 9.5722 0.43953 8.86486C1.554 5.11186 4.00466 1.97851 7.52895 0.540443ZM12.2377 7.29819C12.2377 8.89409 10.9482 10.1919 9.35528 10.1919C7.76235 10.1919 6.47283 8.89993 6.47283 7.29819C6.47283 5.69644 7.76235 4.40452 9.35528 4.40452C10.9482 4.40452 12.2377 5.69644 12.2377 7.29819Z" fill="white"/>
</g>
<defs>
<clipPath id="clip0_237_1583">
<rect width="86" height="23" fill="white"/>
</clipPath>
</defs>
</svg>
