<svg width="89" height="24" viewBox="0 0 89 24" fill="none" xmlns="http://www.w3.org/2000/svg">
<g clip-path="url(#clip0_237_1554)">
<path d="M64.8682 1.64965C64.8682 0.738783 65.6348 -6.67572e-05 66.5806 -6.67572e-05H86.3285C87.2743 -6.67572e-05 88.041 0.738783 88.041 1.64965V21.3801C88.041 22.2912 87.2743 23.0298 86.3285 23.0298H66.5806C65.6348 23.0298 64.8682 22.2912 64.8682 21.3801V1.64965Z" fill="white"/>
<path fill-rule="evenodd" clip-rule="evenodd" d="M0 19.2905H9.67069V16.1551H3.4997V4.1926H0V19.2905Z" fill="white"/>
<path fill-rule="evenodd" clip-rule="evenodd" d="M14.5673 19.2905V8.89157H11.0673V19.2905H14.5673ZM12.8173 7.47172C14.0378 7.47172 14.7975 6.67318 14.7975 5.67461C14.7748 4.6545 14.0378 3.87842 12.8406 3.87842C11.6432 3.87842 10.8604 4.6545 10.8604 5.67461C10.8604 6.67318 11.6199 7.47172 12.7945 7.47172H12.8173Z" fill="white"/>
<path fill-rule="evenodd" clip-rule="evenodd" d="M16.1924 19.2905H19.6924V13.4831C19.6924 13.1723 19.7152 12.8618 19.8078 12.6397C20.0606 12.019 20.6365 11.3758 21.6034 11.3758C22.87 11.3758 23.3767 12.3298 23.3767 13.7269V19.2905H26.8764V13.3277C26.8764 10.1335 25.1495 8.64723 22.8468 8.64723C20.9587 8.64723 20.1297 9.6895 19.6691 10.3994H19.6925V8.89157H16.1924C16.2384 9.86736 16.1924 19.2905 16.1924 19.2905Z" fill="white"/>
<path fill-rule="evenodd" clip-rule="evenodd" d="M31.8136 4.1926H28.3135V19.2905H31.8136V15.9191L32.6884 14.8316L35.4285 19.2905H39.7342L35.1293 12.8354L39.1588 8.44352H34.9452C34.9452 8.44352 32.067 12.3729 31.8136 12.8388V4.1926Z" fill="white"/>
<path fill-rule="evenodd" clip-rule="evenodd" d="M49.0939 14.9529C49.1399 14.6858 49.2091 14.1735 49.2091 13.5943C49.2091 10.9061 47.8273 8.17715 44.1894 8.17715C40.2979 8.17715 38.502 11.2165 38.502 13.9732C38.502 17.3827 40.6894 19.5122 44.5117 19.5122C46.0315 19.5122 47.4358 19.2906 48.5873 18.8247L48.1266 16.542C47.1826 16.8513 46.2155 17.0058 45.0183 17.0058C43.3835 17.0058 41.956 16.3433 41.8407 14.9308L49.0939 14.9523V14.9529ZM41.8179 12.6145C41.9099 11.7271 42.5086 10.418 44.0053 10.418C45.5937 10.418 45.9624 11.816 45.9624 12.6145H41.8179Z" fill="white"/>
<path fill-rule="evenodd" clip-rule="evenodd" d="M57.8484 4.19272V9.41912H57.8024C57.2958 8.68766 56.2364 8.19961 54.8322 8.19961C52.1379 8.19961 49.7664 10.3291 49.7892 13.9667C49.7892 17.3387 51.9307 19.5347 54.6017 19.5347C56.0523 19.5347 57.4338 18.9134 58.1245 17.7154H58.1938L58.3319 19.2906H61.4406C61.3945 18.5586 61.3481 17.2941 61.3481 16.0521V4.19272H57.8484ZM57.8484 14.4772C57.8484 14.7431 57.8253 15.0096 57.7791 15.2311C57.5722 16.1851 56.743 16.8504 55.7302 16.8504C54.2794 16.8504 53.3354 15.697 53.3354 13.8781C53.3354 12.1702 54.1414 10.795 55.753 10.795C56.8351 10.795 57.5951 11.5267 57.8024 12.4361C57.8484 12.6361 57.8484 12.858 57.8484 13.0574V14.4772Z" fill="white"/>
<path fill-rule="evenodd" clip-rule="evenodd" d="M71.8925 19.2783V8.87905H68.3924V19.2783H71.8925ZM70.1425 7.45921C71.363 7.45921 72.1227 6.66066 72.1227 5.66271C72.0999 4.64229 71.363 3.8659 70.1656 3.8659C68.9684 3.8659 68.1855 4.64229 68.1855 5.66271C68.1855 6.66066 68.9451 7.45921 70.1196 7.45921H70.1425Z" fill="#0D0D0B"/>
<path fill-rule="evenodd" clip-rule="evenodd" d="M73.8291 19.2783H77.3291V13.4709C77.3291 13.1601 77.3519 12.8496 77.4443 12.6275C77.6973 12.0065 78.2732 11.3633 79.2401 11.3633C80.5066 11.3633 81.0132 12.317 81.0132 13.715V19.2783H84.513V13.3155C84.513 10.1213 82.7862 8.63503 80.4835 8.63503C78.5953 8.63503 77.7664 9.67729 77.3058 10.3872H77.3292V8.87905H73.8292C73.8751 9.85485 73.8291 19.2783 73.8291 19.2783Z" fill="#0D0D0B"/>
</g>
<defs>
<clipPath id="clip0_237_1554">
<rect width="88.0411" height="23.0299" fill="white"/>
</clipPath>
</defs>
</svg>
