<svg width="124" height="23" viewBox="0 0 124 23" fill="none" xmlns="http://www.w3.org/2000/svg">
<g clip-path="url(#clip0_237_1569)">
<g clip-path="url(#clip1_237_1569)">
<path d="M42.5027 16.4226V18.8073H33.6494V16.4226H36.6062V5.38472H33.6494V3H39.5805V16.4226H42.5027Z" fill="white"/>
<path d="M53.1023 16.4226V18.8073H44.249V16.4226H47.1885V5.38472H44.249V3H50.1801V16.4226H53.1023Z" fill="white"/>
<path d="M56.6468 18.8073V9.60914H53.8281V7.22442H56.6468V6.28755C56.6468 4.15835 57.7706 3.01709 60.0879 3.01709H63.425V5.35071H60.572C59.8456 5.35071 59.5517 5.65731 59.5517 6.3557V7.20738H63.425V9.59211H59.5863V18.7903H56.6468V18.8073Z" fill="white"/>
<path d="M70.3596 7.08789C66.7802 7.08789 64.3594 9.47261 64.3594 13.0156C64.3594 16.5586 66.7802 18.9434 70.3596 18.9434C73.939 18.9434 76.3771 16.5757 76.3771 13.0156C76.3771 9.45558 73.9563 7.08789 70.3596 7.08789ZM70.3596 16.5246C68.5612 16.5246 67.3855 15.0597 67.3855 12.9986C67.3855 10.9375 68.5612 9.47261 70.3596 9.47261C72.1579 9.47261 73.3511 10.9375 73.3511 12.9986C73.3511 15.0767 72.1752 16.5246 70.3596 16.5246Z" fill="white"/>
<path d="M86.3193 7.22461H89.2762V18.8075H86.3884V17.3937C85.645 18.2625 84.6074 18.9438 82.9648 18.9438C80.5786 18.9438 78.417 17.7344 78.417 13.7655V7.22461H81.374V13.5271C81.374 15.4519 82.0829 16.525 83.7083 16.525C85.3337 16.525 86.3193 15.3497 86.3193 13.2545V7.22461Z" fill="white"/>
<path d="M114.038 3V8.60409C113.294 7.7013 112.136 7.07105 110.545 7.07105C107.45 7.07105 105.063 9.40468 105.063 12.9817C105.063 16.5588 107.363 18.9265 110.493 18.9265C112.205 18.9265 113.363 18.1259 114.124 17.1209V18.7902H117.012V3H114.038ZM111.081 16.5248C109.248 16.5248 108.072 15.0769 108.072 12.9988C108.072 10.9207 109.248 9.47281 111.081 9.47281C112.914 9.47281 114.072 10.9207 114.072 13.0158C114.072 15.0939 112.897 16.5248 111.081 16.5248Z" fill="white"/>
<path d="M3.64853 18.8075L0 7.22461H3.38915L5.55061 15.5541L7.88497 7.22461H11.2914L13.6258 15.5541L15.7872 7.22461H19.1763L15.476 18.8075H11.862L9.57956 10.444L7.27976 18.8075H3.64853Z" fill="white"/>
<path d="M121.854 18.9267C122.943 18.9267 123.825 18.0573 123.825 16.9848C123.825 15.9124 122.943 15.043 121.854 15.043C120.765 15.043 119.883 15.9124 119.883 16.9848C119.883 18.0573 120.765 18.9267 121.854 18.9267Z" fill="white"/>
<path d="M121.854 10.9716C122.943 10.9716 123.825 10.1022 123.825 9.02974C123.825 7.95729 122.943 7.08789 121.854 7.08789C120.765 7.08789 119.883 7.95729 119.883 9.02974C119.883 10.1022 120.765 10.9716 121.854 10.9716Z" fill="white"/>
<path d="M31.9031 13.6804C31.955 13.3227 31.9896 12.8968 31.9896 12.6243C31.955 9.21753 29.6379 7.07129 26.2141 7.07129C22.7903 7.07129 20.335 9.42193 20.335 13.016C20.335 16.6102 22.652 18.9267 26.4216 18.9267C29.465 18.9267 31.4534 17.1382 31.8167 14.8727H28.8943C28.6003 16.031 27.6494 16.6613 26.3006 16.6613C24.606 16.6613 23.4821 15.5541 23.413 13.7996V13.6633H31.9031V13.6804ZM26.2141 9.3027C27.7013 9.3027 28.7214 10.1203 28.9807 11.6193H23.4994C23.7069 10.1885 24.8135 9.3027 26.2141 9.3027Z" fill="white"/>
<path d="M95.1209 18.8071H92.1641V7.22417H95.0517V8.63796C95.7953 7.76923 96.8328 7.08789 98.4755 7.08789C100.862 7.08789 103.023 8.29728 103.023 12.2661V18.8071H100.066V12.4876C100.066 10.5628 99.3573 9.48965 97.732 9.48965C96.1066 9.48965 95.1209 10.665 95.1209 12.7601V18.8071Z" fill="white"/>
</g>
</g>
<defs>
<clipPath id="clip0_237_1569">
<rect width="124" height="23" fill="white"/>
</clipPath>
<clipPath id="clip1_237_1569">
<rect width="124" height="16" fill="white" transform="translate(0 3)"/>
</clipPath>
</defs>
</svg>
